####
#
# OBJ File Generated by Meshlab
#
####
# Object wall.obj
#
# Vertices: 120
# Faces: 112
#
####
vn 1.000000 0.000000 0.000000
v 2.0000000 -50.000000 -50.000000
vn 1.000000 0.000000 0.000000
v 2.0000000 -6.376521 -3.948415
vn 1.000000 0.000000 0.000000
v 2.0000000 -50.000000 50.000000
vn 1.000000 0.000000 0.000000
v 2.0000000 -5.137321 -5.464242
vn 1.000000 0.000000 0.000000
v 2.0000000 50.000000 -50.000000
vn 1.000000 0.000000 0.000000
v 2.0000000 -7.181171 -2.163511
vn 1.000000 0.000000 0.000000
v 2.0000000 -7.496437 -0.231168
vn 1.000000 0.000000 0.000000
v 2.0000000 -3.548021 -6.607688
vn 1.000000 0.000000 0.000000
v 2.0000000 -1.716930 -7.300832
vn 1.000000 0.000000 0.000000
v 2.0000000 0.231168 -7.496437
vn 1.000000 0.000000 0.000000
v 2.0000000 2.163511 -7.181171
vn 1.000000 0.000000 0.000000
v 2.0000000 3.948415 -6.376521
vn 1.000000 0.000000 0.000000
v 2.0000000 5.464242 -5.137321
vn 1.000000 0.000000 0.000000
v 2.0000000 6.607688 -3.548021
vn 1.000000 0.000000 0.000000
v 2.0000000 7.300832 -1.716930
vn 1.000000 0.000000 0.000000
v 2.0000000 7.496437 0.231168
vn 1.000000 0.000000 0.000000
v 2.0000000 -3.948415 6.376521
vn 1.000000 0.000000 0.000000
v 2.0000000 50.000000 50.000000
vn 1.000000 0.000000 0.000000
v 2.0000000 -5.464242 5.137321
vn 1.000000 0.000000 0.000000
v 2.0000000 -6.607688 3.548021
vn 1.000000 0.000000 0.000000
v 2.0000000 -7.300832 1.716930
vn 1.000000 0.000000 0.000000
v 2.0000000 -2.163511 7.181171
vn 1.000000 0.000000 0.000000
v 2.0000000 -0.231168 7.496437
vn 1.000000 0.000000 0.000000
v 2.0000000 1.716930 7.300832
vn 1.000000 0.000000 0.000000
v 2.0000000 3.548021 6.607688
vn 1.000000 0.000000 0.000000
v 2.0000000 5.137321 5.464242
vn 1.000000 0.000000 0.000000
v 2.0000000 6.376521 3.948415
vn 1.000000 0.000000 0.000000
v 2.0000000 7.181171 2.163511
vn 0.000000 1.000000 0.000000
v -2.0000000 50.000000 50.000000
vn 0.000000 1.000000 0.000000
v 2.0000000 50.000000 -50.000000
vn 0.000000 1.000000 0.000000
v -2.0000000 50.000000 -50.000000
vn 0.000000 1.000000 0.000000
v 2.0000000 50.000000 50.000000
vn 0.000000 0.000000 1.000000
v 2.0000000 -50.000000 50.000000
vn 0.000000 0.000000 1.000000
v -2.0000000 50.000000 50.000000
vn 0.000000 0.000000 1.000000
v -2.0000000 -50.000000 50.000000
vn 0.000000 0.000000 1.000000
v 2.0000000 50.000000 50.000000
vn 0.000000 -1.000000 0.000000
v 2.0000000 -50.000000 50.000000
vn 0.000000 -1.000000 0.000000
v -2.0000000 -50.000000 -50.000000
vn 0.000000 -1.000000 0.000000
v 2.0000000 -50.000000 -50.000000
vn 0.000000 -1.000000 0.000000
v -2.0000000 -50.000000 50.000000
vn 0.000000 0.000000 -1.000000
v 2.0000000 50.000000 -50.000000
vn 0.000000 0.000000 -1.000000
v -2.0000000 -50.000000 -50.000000
vn 0.000000 0.000000 -1.000000
v -2.0000000 50.000000 -50.000000
vn 0.000000 0.000000 -1.000000
v 2.0000000 -50.000000 -50.000000
vn -1.000000 0.000000 0.000000
v -2.0000000 -50.000000 50.000000
vn -1.000000 0.000000 0.000000
v -2.0000000 -5.464242 5.137321
vn -1.000000 0.000000 0.000000
v -2.0000000 -50.000000 -50.000000
vn -1.000000 0.000000 0.000000
v -2.0000000 -3.948415 6.376521
vn -1.000000 0.000000 0.000000
v -2.0000000 50.000000 50.000000
vn -1.000000 0.000000 0.000000
v -2.0000000 -6.607688 3.548021
vn -1.000000 0.000000 0.000000
v -2.0000000 -7.300832 1.716930
vn -1.000000 0.000000 0.000000
v -2.0000000 -7.496437 -0.231168
vn -1.000000 0.000000 0.000000
v -2.0000000 -2.163511 7.181171
vn -1.000000 0.000000 0.000000
v -2.0000000 -0.231168 7.496437
vn -1.000000 0.000000 0.000000
v -2.0000000 1.716930 7.300832
vn -1.000000 0.000000 0.000000
v -2.0000000 3.548021 6.607688
vn -1.000000 0.000000 0.000000
v -2.0000000 5.137321 5.464242
vn -1.000000 0.000000 0.000000
v -2.0000000 6.376521 3.948415
vn -1.000000 0.000000 0.000000
v -2.0000000 7.181171 2.163511
vn -1.000000 0.000000 0.000000
v -2.0000000 7.496437 0.231168
vn -1.000000 0.000000 0.000000
v -2.0000000 -5.137321 -5.464242
vn -1.000000 0.000000 0.000000
v -2.0000000 50.000000 -50.000000
vn -1.000000 0.000000 0.000000
v -2.0000000 -6.376521 -3.948415
vn -1.000000 0.000000 0.000000
v -2.0000000 -7.181171 -2.163511
vn -1.000000 0.000000 0.000000
v -2.0000000 -3.548021 -6.607688
vn -1.000000 0.000000 0.000000
v -2.0000000 -1.716930 -7.300832
vn -1.000000 0.000000 0.000000
v -2.0000000 0.231168 -7.496437
vn -1.000000 0.000000 0.000000
v -2.0000000 2.163511 -7.181171
vn -1.000000 0.000000 0.000000
v -2.0000000 3.948415 -6.376521
vn -1.000000 0.000000 0.000000
v -2.0000000 5.464242 -5.137321
vn -1.000000 0.000000 0.000000
v -2.0000000 6.607688 -3.548021
vn -1.000000 0.000000 0.000000
v -2.0000000 7.300832 -1.716930
vn 0.000000 -0.999915 0.013028
v 2.0000000 7.496437 0.231168
vn 0.000000 -0.982545 0.186026
v -2.0000000 7.300832 -1.716930
vn 0.000000 -0.962472 0.271382
v 2.0000000 7.300832 -1.716930
vn 0.000000 -0.997212 -0.074614
v -2.0000000 7.496437 0.231168
vn 0.000000 -0.969216 -0.246213
v 2.0000000 7.181171 2.163511
vn 0.000000 -0.943922 -0.330169
v -2.0000000 7.181171 2.163511
vn 0.000000 -0.900918 0.433989
v -2.0000000 6.607688 -3.548021
vn 0.000000 -0.859438 0.511240
v 2.0000000 6.607688 -3.548021
vn 0.000000 -0.872466 -0.488675
v 2.0000000 6.376521 3.948415
vn 0.000000 -0.826304 -0.563224
v -2.0000000 6.376521 3.948415
vn 0.000000 -0.728565 0.684976
v -2.0000000 5.464242 -5.137321
vn 0.000000 -0.728565 0.684976
v 2.0000000 5.464242 -5.137321
vn 0.000000 -0.684976 -0.728566
v 2.0000000 5.137321 5.464242
vn 0.000000 -0.684976 -0.728565
v -2.0000000 5.137321 5.464242
vn 0.000000 -0.563224 0.826304
v 2.0000000 3.948415 -6.376521
vn 0.000000 -0.488675 0.872466
v -2.0000000 3.948415 -6.376521
vn 0.000000 -0.511240 -0.859438
v -2.0000000 3.548021 6.607688
vn 0.000000 -0.433989 -0.900918
v 2.0000000 3.548021 6.607688
vn 0.000000 -0.330169 0.943922
v 2.0000000 2.163511 -7.181171
vn 0.000000 -0.246213 0.969216
v -2.0000000 2.163511 -7.181171
vn 0.000000 -0.271382 -0.962472
v -2.0000000 1.716930 7.300832
vn 0.000000 -0.186026 -0.982545
v 2.0000000 1.716930 7.300832
vn 0.000000 -0.074614 0.997212
v 2.0000000 0.231168 -7.496437
vn 0.000000 0.013028 0.999915
v -2.0000000 0.231168 -7.496437
vn 0.000000 -0.013028 -0.999915
v -2.0000000 -0.231168 7.496437
vn 0.000000 0.074614 -0.997212
v 2.0000000 -0.231168 7.496437
vn 0.000000 0.186026 0.982545
v 2.0000000 -1.716930 -7.300832
vn 0.000000 0.271382 0.962472
v -2.0000000 -1.716930 -7.300832
vn 0.000000 0.246213 -0.969216
v -2.0000000 -2.163511 7.181171
vn 0.000000 0.330169 -0.943922
v 2.0000000 -2.163511 7.181171
vn 0.000000 0.433989 0.900918
v 2.0000000 -3.548021 -6.607688
vn 0.000000 0.511240 0.859438
v -2.0000000 -3.548021 -6.607688
vn 0.000000 0.488675 -0.872466
v -2.0000000 -3.948415 6.376521
vn 0.000000 0.563224 -0.826304
v 2.0000000 -3.948415 6.376521
vn 0.000000 0.684976 0.728565
v 2.0000000 -5.137321 -5.464242
vn 0.000000 0.684976 0.728565
v -2.0000000 -5.137321 -5.464242
vn 0.000000 0.728566 -0.684976
v -2.0000000 -5.464242 5.137321
vn 0.000000 0.728565 -0.684976
v 2.0000000 -5.464242 5.137321
vn 0.000000 0.826304 0.563224
v -2.0000000 -6.376521 -3.948415
vn 0.000000 0.872466 0.488675
v 2.0000000 -6.376521 -3.948415
vn 0.000000 0.859438 -0.511240
v 2.0000000 -6.607688 3.548021
vn 0.000000 0.900918 -0.433989
v -2.0000000 -6.607688 3.548021
vn 0.000000 0.943922 0.330169
v -2.0000000 -7.181171 -2.163511
vn 0.000000 0.969216 0.246213
v 2.0000000 -7.181171 -2.163511
vn 0.000000 0.962472 -0.271382
v 2.0000000 -7.300832 1.716930
vn 0.000000 0.982545 -0.186026
v -2.0000000 -7.300832 1.716930
vn 0.000000 0.997212 0.074614
v -2.0000000 -7.496437 -0.231168
vn 0.000000 0.999915 -0.013028
v 2.0000000 -7.496437 -0.231168
# 120 vertices, 0 vertices normals

f 1//1 2//2 3//3
f 2//2 1//1 4//4
f 4//4 1//1 5//5
f 3//3 2//2 6//6
f 3//3 6//6 7//7
f 4//4 5//5 8//8
f 8//8 5//5 9//9
f 9//9 5//5 10//10
f 10//10 5//5 11//11
f 11//11 5//5 12//12
f 12//12 5//5 13//13
f 13//13 5//5 14//14
f 14//14 5//5 15//15
f 15//15 5//5 16//16
f 3//3 17//17 18//18
f 17//17 3//3 19//19
f 19//19 3//3 20//20
f 20//20 3//3 21//21
f 21//21 3//3 7//7
f 18//18 17//17 22//22
f 18//18 22//22 23//23
f 18//18 23//23 24//24
f 18//18 24//24 25//25
f 18//18 25//25 26//26
f 18//18 26//26 27//27
f 18//18 27//27 28//28
f 18//18 28//28 16//16
f 18//18 16//16 5//5
f 29//29 30//30 31//31
f 30//30 29//29 32//32
f 33//33 34//34 35//35
f 34//34 33//33 36//36
f 37//37 38//38 39//39
f 38//38 37//37 40//40
f 41//41 42//42 43//43
f 42//42 41//41 44//44
f 45//45 46//46 47//47
f 46//46 45//45 48//48
f 48//48 45//45 49//49
f 47//47 46//46 50//50
f 47//47 50//50 51//51
f 47//47 51//51 52//52
f 48//48 49//49 53//53
f 53//53 49//49 54//54
f 54//54 49//49 55//55
f 55//55 49//49 56//56
f 56//56 49//49 57//57
f 57//57 49//49 58//58
f 58//58 49//49 59//59
f 59//59 49//49 60//60
f 47//47 61//61 62//62
f 61//61 47//47 63//63
f 63//63 47//47 64//64
f 64//64 47//47 52//52
f 62//62 61//61 65//65
f 62//62 65//65 66//66
f 62//62 66//66 67//67
f 62//62 67//67 68//68
f 62//62 68//68 69//69
f 62//62 69//69 70//70
f 62//62 70//70 71//71
f 62//62 71//71 72//72
f 62//62 72//72 60//60
f 62//62 60//60 49//49
f 73//73 74//74 75//75
f 74//74 73//73 76//76
f 77//77 76//76 73//73
f 76//76 77//77 78//78
f 75//75 79//79 80//80
f 79//79 75//75 74//74
f 81//81 78//78 77//77
f 78//78 81//81 82//82
f 80//80 83//83 84//84
f 83//83 80//80 79//79
f 85//85 82//82 81//81
f 82//82 85//85 86//86
f 87//87 83//83 88//88
f 83//83 87//87 84//84
f 85//85 89//89 86//86
f 89//89 85//85 90//90
f 91//91 88//88 92//92
f 88//88 91//91 87//87
f 90//90 93//93 89//89
f 93//93 90//90 94//94
f 95//95 92//92 96//96
f 92//92 95//95 91//91
f 94//94 97//97 93//93
f 97//97 94//94 98//98
f 99//99 96//96 100//100
f 96//96 99//99 95//95
f 98//98 101//101 97//97
f 101//101 98//98 102//102
f 103//103 100//100 104//104
f 100//100 103//103 99//99
f 102//102 105//105 101//101
f 105//105 102//102 106//106
f 107//107 104//104 108//108
f 104//104 107//107 103//103
f 106//106 109//109 105//105
f 109//109 106//106 110//110
f 111//111 107//107 108//108
f 107//107 111//111 112//112
f 109//109 113//113 114//114
f 113//113 109//109 110//110
f 115//115 112//112 111//111
f 112//112 115//115 116//116
f 114//114 117//117 118//118
f 117//117 114//114 113//113
f 119//119 116//116 115//115
f 116//116 119//119 120//120
f 118//118 120//120 119//119
f 120//120 118//118 117//117
# 112 faces, 0 coords texture

# End of File