####
#
# OBJ File Generated by Meshlab
#
####
# Object box.obj
#
# Vertices: 24
# Faces: 12
#
####
vn 0.000000 0.000000 1.000000
v 511.811035 0.000000 220.472443
vn 0.000000 0.000000 1.000000
v 0.000000 354.330719 220.472443
vn 0.000000 0.000000 1.000000
v 0.000000 0.000000 220.472443
vn 0.000000 0.000000 1.000000
v 511.811035 354.330719 220.472443
vn -1.000000 0.000000 0.000000
v 0.000000 354.330719 220.472443
vn -1.000000 0.000000 0.000000
v 0.000000 0.000000 7.874016
vn -1.000000 0.000000 0.000000
v 0.000000 0.000000 220.472443
vn -1.000000 0.000000 0.000000
v 0.000000 354.330719 7.874016
vn -0.000000 -1.000000 -0.000000
v 511.811035 0.000000 220.472443
vn -0.000000 -1.000000 -0.000000
v 0.000000 0.000000 7.874016
vn -0.000000 -1.000000 -0.000000
v 511.811035 0.000000 7.874016
vn 0.000000 -1.000000 -0.000000
v 0.000000 0.000000 220.472443
vn 1.000000 0.000000 0.000000
v 511.811035 0.000000 7.874016
vn 1.000000 0.000000 0.000000
v 511.811035 354.330719 220.472443
vn 1.000000 0.000000 0.000000
v 511.811035 0.000000 220.472443
vn 1.000000 0.000000 0.000000
v 511.811035 354.330719 7.874016
vn 0.000000 1.000000 0.000000
v 0.000000 354.330719 220.472443
vn 0.000000 1.000000 0.000000
v 511.811035 354.330719 7.874016
vn 0.000000 1.000000 0.000000
v 0.000000 354.330719 7.874016
vn 0.000000 1.000000 0.000000
v 511.811035 354.330719 220.472443
vn 0.000000 0.000000 -1.000000
v 511.811035 354.330719 7.874016
vn 0.000000 0.000000 -1.000000
v 0.000000 0.000000 7.874016
vn 0.000000 0.000000 -1.000000
v 0.000000 354.330719 7.874016
vn 0.000000 0.000000 -1.000000
v 511.811035 0.000000 7.874016
# 24 vertices, 0 vertices normals

f 1//1 2//2 3//3
f 2//2 1//1 4//4
f 5//5 6//6 7//7
f 6//6 5//5 8//8
f 9//9 10//10 11//11
f 10//10 9//9 12//12
f 13//13 14//14 15//15
f 14//14 13//13 16//16
f 17//17 18//18 19//19
f 18//18 17//17 20//20
f 21//21 22//22 23//23
f 22//22 21//21 24//24
# 12 faces, 0 coords texture

# End of File