####
#
# OBJ File Generated by Meshlab
#
####
# Object miscsecond.obj
#
# Vertices: 144
# Faces: 76
#
####
vn 0.000000 -1.000000 0.000000
v 23.622047 200.787399 153.543304
vn 0.000000 -1.000000 0.000000
v 0.000000 200.787399 118.110237
vn 0.000000 -1.000000 0.000000
v 23.622047 200.787399 118.110237
vn 0.000000 -1.000000 0.000000
v 0.000000 200.787399 153.543304
vn 0.000000 0.000000 -1.000000
v 23.622047 259.842529 118.110237
vn 0.000000 0.000000 -1.000000
v 0.000000 200.787399 118.110237
vn 0.000000 0.000000 -1.000000
v 0.000000 259.842529 118.110237
vn 0.000000 0.000000 -1.000000
v 23.622047 200.787399 118.110237
vn 1.000000 0.000000 0.000000
v 23.622047 259.842529 118.110237
vn 1.000000 0.000000 0.000000
v 23.622047 200.787399 153.543304
vn 1.000000 0.000000 0.000000
v 23.622047 200.787399 118.110237
vn 1.000000 0.000000 0.000000
v 23.622047 259.842529 153.543304
vn 0.000000 0.000000 1.000000
v 23.622047 200.787399 153.543304
vn 0.000000 0.000000 1.000000
v 0.000000 259.842529 153.543304
vn 0.000000 0.000000 1.000000
v 0.000000 200.787399 153.543304
vn 0.000000 0.000000 1.000000
v 23.622047 259.842529 153.543304
vn -1.000000 -0.000000 -0.000000
v 0.000000 259.842529 153.543304
vn -1.000000 -0.000000 -0.000000
v 0.000000 200.787399 118.110237
vn -1.000000 0.000000 -0.000000
v 0.000000 200.787399 153.543304
vn -1.000000 -0.000000 0.000000
v 0.000000 259.842529 118.110237
vn 0.000000 1.000000 0.000000
v 0.000000 259.842529 153.543304
vn 0.000000 1.000000 0.000000
v 23.622047 259.842529 118.110237
vn 0.000000 1.000000 0.000000
v 0.000000 259.842529 118.110237
vn 0.000000 1.000000 0.000000
v 23.622047 259.842529 153.543304
vn -0.000000 -1.000000 -0.000000
v 181.102356 -0.000000 196.850403
vn -0.000000 -1.000000 -0.000000
v 157.480316 0.000000 118.110237
vn -0.000000 -1.000000 0.000000
v 181.102356 -0.000000 118.110237
vn 0.000000 -1.000000 -0.000000
v 157.480316 -0.000000 196.850403
vn 0.000000 0.000000 -1.000000
v 181.102356 196.850388 118.110237
vn 0.000000 0.000000 -1.000000
v 157.480316 0.000000 118.110237
vn 0.000000 0.000000 -1.000000
v 157.480316 196.850388 118.110237
vn 0.000000 0.000000 -1.000000
v 181.102356 -0.000000 118.110237
vn 1.000000 0.000000 0.000000
v 181.102356 196.850388 118.110237
vn 1.000000 0.000000 0.000000
v 181.102356 -0.000000 196.850403
vn 1.000000 0.000000 0.000000
v 181.102356 -0.000000 118.110237
vn 1.000000 0.000000 0.000000
v 181.102356 196.850388 196.850403
vn 0.000000 0.000000 1.000000
v 181.102356 -0.000000 196.850403
vn 0.000000 0.000000 1.000000
v 157.480316 196.850388 196.850403
vn 0.000000 0.000000 1.000000
v 157.480316 -0.000000 196.850403
vn 0.000000 0.000000 1.000000
v 181.102356 196.850388 196.850403
vn -1.000000 0.000000 0.000000
v 157.480316 196.850388 196.850403
vn -1.000000 0.000000 0.000000
v 157.480316 0.000000 118.110237
vn -1.000000 0.000000 0.000000
v 157.480316 -0.000000 196.850403
vn -1.000000 0.000000 0.000000
v 157.480316 196.850388 118.110237
vn 0.000000 1.000000 0.000000
v 157.480316 196.850388 196.850403
vn 0.000000 1.000000 0.000000
v 181.102356 196.850388 118.110237
vn 0.000000 1.000000 0.000000
v 157.480316 196.850388 118.110237
vn 0.000000 1.000000 0.000000
v 181.102356 196.850388 196.850403
vn 0.000000 0.000000 1.000000
v 476.377960 275.590546 196.850403
vn 0.000000 0.000000 1.000000
v 437.007874 299.212585 196.850403
vn 0.000000 0.000000 1.000000
v 437.007874 275.590546 196.850403
vn 0.000000 0.000000 1.000000
v 476.377960 299.212585 196.850403
vn 0.000000 1.000000 0.000000
v 437.007874 299.212585 118.110237
vn 0.000000 1.000000 0.000000
v 476.377960 299.212585 153.543304
vn 0.000000 1.000000 0.000000
v 511.811035 299.212585 118.110237
vn 0.000000 1.000000 0.000000
v 437.007874 299.212585 196.850403
vn 0.000000 1.000000 0.000000
v 476.377960 299.212585 196.850403
vn 0.000000 1.000000 0.000000
v 511.811035 299.212585 153.543304
vn -1.000000 0.000000 0.000000
v 437.007874 299.212585 196.850403
vn -1.000000 0.000000 0.000000
v 437.007874 275.590546 118.110237
vn -1.000000 0.000000 0.000000
v 437.007874 275.590546 196.850403
vn -1.000000 0.000000 0.000000
v 437.007874 299.212585 118.110237
vn 0.000000 -1.000000 0.000000
v 437.007874 275.590546 118.110237
vn 0.000000 -1.000000 0.000000
v 476.377960 275.590546 153.543304
vn 0.000000 -1.000000 0.000000
v 437.007874 275.590546 196.850403
vn 0.000000 -1.000000 0.000000
v 511.811035 275.590546 118.110237
vn 0.000000 -1.000000 0.000000
v 511.811035 275.590546 153.543304
vn 0.000000 -1.000000 0.000000
v 476.377960 275.590546 196.850403
vn 1.000000 0.000000 0.000000
v 476.377960 299.212585 153.543304
vn 1.000000 0.000000 0.000000
v 476.377960 275.590546 196.850403
vn 1.000000 0.000000 0.000000
v 476.377960 275.590546 153.543304
vn 1.000000 0.000000 0.000000
v 476.377960 299.212585 196.850403
vn 1.000000 0.000000 0.000000
v 511.811035 275.590546 118.110237
vn 1.000000 0.000000 0.000000
v 511.811035 299.212585 153.543304
vn 1.000000 0.000000 0.000000
v 511.811035 275.590546 153.543304
vn 1.000000 0.000000 0.000000
v 511.811035 299.212585 118.110237
vn 0.000000 0.000000 -1.000000
v 511.811035 299.212585 118.110237
vn 0.000000 0.000000 -1.000000
v 437.007874 275.590546 118.110237
vn 0.000000 0.000000 -1.000000
v 437.007874 299.212585 118.110237
vn 0.000000 0.000000 -1.000000
v 511.811035 275.590546 118.110237
vn 0.000000 0.000000 1.000000
v 511.811035 275.590546 153.543304
vn 0.000000 0.000000 1.000000
v 476.377960 299.212585 153.543304
vn 0.000000 0.000000 1.000000
v 476.377960 275.590546 153.543304
vn 0.000000 0.000000 1.000000
v 511.811035 299.212585 153.543304
vn -1.000000 0.000000 0.000000
v 255.905518 354.330719 153.543304
vn -1.000000 0.000000 0.000000
v 255.905518 295.275604 118.110237
vn -1.000000 0.000000 0.000000
v 255.905518 295.275604 153.543304
vn -1.000000 0.000000 0.000000
v 255.905518 354.330719 118.110237
vn 0.000000 0.000000 -1.000000
v 255.905518 354.330719 118.110237
vn 0.000000 0.000000 -1.000000
v 279.527557 295.275604 118.110237
vn 0.000000 0.000000 -1.000000
v 255.905518 295.275604 118.110237
vn 0.000000 0.000000 -1.000000
v 279.527557 354.330719 118.110237
vn 0.000000 -1.000000 0.000000
v 279.527557 295.275604 153.543304
vn 0.000000 -1.000000 0.000000
v 255.905518 295.275604 118.110237
vn 0.000000 -1.000000 0.000000
v 279.527557 295.275604 118.110237
vn 0.000000 -1.000000 0.000000
v 255.905518 295.275604 153.543304
vn 0.000000 0.000000 1.000000
v 279.527557 295.275604 153.543304
vn 0.000000 0.000000 1.000000
v 255.905518 354.330719 153.543304
vn 0.000000 0.000000 1.000000
v 255.905518 295.275604 153.543304
vn 0.000000 0.000000 1.000000
v 279.527557 354.330719 153.543304
vn 0.000000 1.000000 0.000000
v 255.905518 354.330719 118.110237
vn 0.000000 1.000000 0.000000
v 279.527557 354.330719 153.543304
vn 0.000000 1.000000 0.000000
v 279.527557 354.330719 118.110237
vn 0.000000 1.000000 0.000000
v 255.905518 354.330719 153.543304
vn 1.000000 0.000000 0.000000
v 279.527557 354.330719 118.110237
vn 1.000000 0.000000 0.000000
v 279.527557 295.275604 153.543304
vn 1.000000 0.000000 0.000000
v 279.527557 295.275604 118.110237
vn 1.000000 0.000000 0.000000
v 279.527557 354.330719 153.543304
vn 0.000000 0.000000 -1.000000
v 251.968506 354.330688 118.110237
vn 0.000000 0.000000 -1.000000
v 228.346451 303.149597 118.110237
vn 0.000000 0.000000 -1.000000
v 228.346451 354.330688 118.110237
vn 0.000000 0.000000 -1.000000
v 251.968506 279.527557 118.110237
vn 0.000000 0.000000 -1.000000
v 153.543304 279.527557 118.110237
vn 0.000000 0.000000 -1.000000
v 153.543304 303.149597 118.110237
vn 0.000000 -1.000000 0.000000
v 251.968506 279.527557 196.850403
vn 0.000000 -1.000000 0.000000
v 153.543304 279.527557 118.110237
vn 0.000000 -1.000000 0.000000
v 251.968506 279.527557 118.110237
vn 0.000000 -1.000000 0.000000
v 153.543304 279.527557 196.850403
vn -1.000000 0.000000 0.000000
v 153.543304 303.149597 196.850403
vn -1.000000 0.000000 0.000000
v 153.543304 279.527557 118.110237
vn -1.000000 0.000000 0.000000
v 153.543304 279.527557 196.850403
vn -1.000000 0.000000 0.000000
v 153.543304 303.149597 118.110237
vn 0.000000 1.000000 0.000000
v 153.543304 303.149597 196.850403
vn 0.000000 1.000000 0.000000
v 228.346451 303.149597 118.110237
vn 0.000000 1.000000 0.000000
v 153.543304 303.149597 118.110237
vn 0.000000 1.000000 0.000000
v 228.346451 303.149597 196.850403
vn -1.000000 0.000000 0.000000
v 228.346451 354.330688 196.850403
vn -1.000000 0.000000 0.000000
v 228.346451 303.149597 118.110237
vn -1.000000 0.000000 0.000000
v 228.346451 303.149597 196.850403
vn -1.000000 0.000000 0.000000
v 228.346451 354.330688 118.110237
vn 0.000000 1.000000 0.000000
v 228.346451 354.330688 196.850403
vn 0.000000 1.000000 0.000000
v 251.968506 354.330688 118.110237
vn 0.000000 1.000000 0.000000
v 228.346451 354.330688 118.110237
vn 0.000000 1.000000 0.000000
v 251.968506 354.330688 196.850403
vn 1.000000 0.000000 0.000000
v 251.968506 354.330688 118.110237
vn 1.000000 0.000000 0.000000
v 251.968506 279.527557 196.850403
vn 1.000000 0.000000 0.000000
v 251.968506 279.527557 118.110237
vn 1.000000 0.000000 0.000000
v 251.968506 354.330688 196.850403
vn 0.000000 0.000000 1.000000
v 251.968506 279.527557 196.850403
vn 0.000000 0.000000 1.000000
v 153.543304 303.149597 196.850403
vn 0.000000 0.000000 1.000000
v 153.543304 279.527557 196.850403
vn 0.000000 0.000000 1.000000
v 228.346451 303.149597 196.850403
vn 0.000000 0.000000 1.000000
v 228.346451 354.330688 196.850403
vn 0.000000 0.000000 1.000000
v 251.968506 354.330688 196.850403
# 144 vertices, 0 vertices normals

f 1//1 2//2 3//3
f 2//2 1//1 4//4
f 5//5 6//6 7//7
f 6//6 5//5 8//8
f 9//9 10//10 11//11
f 10//10 9//9 12//12
f 13//13 14//14 15//15
f 14//14 13//13 16//16
f 17//17 18//18 19//19
f 18//18 17//17 20//20
f 21//21 22//22 23//23
f 22//22 21//21 24//24
f 25//25 26//26 27//27
f 26//26 25//25 28//28
f 29//29 30//30 31//31
f 30//30 29//29 32//32
f 33//33 34//34 35//35
f 34//34 33//33 36//36
f 37//37 38//38 39//39
f 38//38 37//37 40//40
f 41//41 42//42 43//43
f 42//42 41//41 44//44
f 45//45 46//46 47//47
f 46//46 45//45 48//48
f 49//49 50//50 51//51
f 50//50 49//49 52//52
f 53//53 54//54 55//55
f 54//54 53//53 56//56
f 54//54 56//56 57//57
f 58//58 55//55 54//54
f 59//59 60//60 61//61
f 60//60 59//59 62//62
f 63//63 64//64 65//65
f 64//64 63//63 66//66
f 64//64 66//66 67//67
f 65//65 64//64 68//68
f 69//69 70//70 71//71
f 70//70 69//69 72//72
f 73//73 74//74 75//75
f 74//74 73//73 76//76
f 77//77 78//78 79//79
f 78//78 77//77 80//80
f 81//81 82//82 83//83
f 82//82 81//81 84//84
f 85//85 86//86 87//87
f 86//86 85//85 88//88
f 89//89 90//90 91//91
f 90//90 89//89 92//92
f 93//93 94//94 95//95
f 94//94 93//93 96//96
f 97//97 98//98 99//99
f 98//98 97//97 100//100
f 101//101 102//102 103//103
f 102//102 101//101 104//104
f 105//105 106//106 107//107
f 106//106 105//105 108//108
f 109//109 110//110 111//111
f 110//110 109//109 112//112
f 110//110 113//113 114//114
f 113//113 110//110 112//112
f 115//115 116//116 117//117
f 116//116 115//115 118//118
f 119//119 120//120 121//121
f 120//120 119//119 122//122
f 123//123 124//124 125//125
f 124//124 123//123 126//126
f 127//127 128//128 129//129
f 128//128 127//127 130//130
f 131//131 132//132 133//133
f 132//132 131//131 134//134
f 135//135 136//136 137//137
f 136//136 135//135 138//138
f 139//139 140//140 141//141
f 140//140 139//139 142//142
f 142//142 139//139 143//143
f 143//143 139//139 144//144
# 76 faces, 0 coords texture

# End of File