####
#
# OBJ File Generated by Meshlab
#
####
# Object stairs.obj
#
# Vertices: 180
# Faces: 116
#
####
vn 0.000000 -1.000000 0.000000
v 314.960632 90.551178 23.622047
vn 0.000000 -1.000000 0.000000
v 374.015747 90.551178 15.748032
vn 0.000000 -1.000000 0.000000
v 374.015747 90.551178 23.622047
vn 0.000000 -1.000000 0.000000
v 314.960632 90.551178 15.748032
vn -1.000000 0.000000 0.000000
v 314.960632 78.740158 15.748032
vn -1.000000 0.000000 0.000000
v 314.960632 275.590546 7.874016
vn -1.000000 0.000000 0.000000
v 314.960632 78.740158 7.874016
vn -1.000000 0.000000 0.000000
v 314.960632 90.551178 15.748032
vn -1.000000 0.000000 0.000000
v 314.960632 275.590546 118.110237
vn -1.000000 0.000000 0.000000
v 314.960632 102.362206 23.622047
vn -1.000000 0.000000 0.000000
v 314.960632 90.551178 23.622047
vn -1.000000 0.000000 0.000000
v 314.960632 114.173233 31.496063
vn -1.000000 0.000000 0.000000
v 314.960632 102.362206 31.496063
vn -1.000000 0.000000 0.000000
v 314.960632 125.984253 39.370079
vn -1.000000 0.000000 0.000000
v 314.960632 114.173233 39.370079
vn -1.000000 0.000000 0.000000
v 314.960632 137.795273 47.244095
vn -1.000000 0.000000 0.000000
v 314.960632 125.984253 47.244095
vn -1.000000 0.000000 0.000000
v 314.960632 149.606293 55.118111
vn -1.000000 0.000000 0.000000
v 314.960632 137.795273 55.118111
vn -1.000000 0.000000 0.000000
v 314.960632 161.417328 62.992126
vn -1.000000 0.000000 0.000000
v 314.960632 149.606293 62.992126
vn -1.000000 0.000000 0.000000
v 314.960632 173.228348 70.866142
vn -1.000000 0.000000 0.000000
v 314.960632 161.417328 70.866142
vn -1.000000 0.000000 0.000000
v 314.960632 185.039368 78.740158
vn -1.000000 0.000000 0.000000
v 314.960632 173.228348 78.740158
vn -1.000000 0.000000 0.000000
v 314.960632 196.850403 86.614174
vn -1.000000 0.000000 0.000000
v 314.960632 185.039368 86.614174
vn -1.000000 0.000000 0.000000
v 314.960632 208.661423 94.488190
vn -1.000000 0.000000 0.000000
v 314.960632 196.850403 94.488190
vn -1.000000 0.000000 0.000000
v 314.960632 220.472443 102.362206
vn -1.000000 0.000000 0.000000
v 314.960632 208.661423 102.362206
vn -1.000000 0.000000 0.000000
v 314.960632 232.283463 110.236221
vn -1.000000 0.000000 0.000000
v 314.960632 220.472443 110.236221
vn -1.000000 0.000000 0.000000
v 314.960632 232.283463 118.110237
vn 0.000000 0.000000 1.000000
v 374.015747 90.551178 15.748032
vn 0.000000 0.000000 1.000000
v 314.960632 78.740158 15.748032
vn 0.000000 0.000000 1.000000
v 374.015747 78.740158 15.748032
vn 0.000000 0.000000 1.000000
v 314.960632 90.551178 15.748032
vn 1.000000 0.000000 0.000000
v 374.015747 90.551178 23.622047
vn 1.000000 0.000000 0.000000
v 374.015747 90.551178 15.748032
vn 1.000000 0.000000 0.000000
v 374.015747 102.362206 23.622047
vn 1.000000 0.000000 0.000000
v 374.015747 275.590546 118.110237
vn 1.000000 0.000000 0.000000
v 374.015747 78.740158 7.874016
vn 1.000000 0.000000 0.000000
v 374.015747 275.590546 7.874016
vn 1.000000 0.000000 0.000000
v 374.015747 114.173233 31.496063
vn 1.000000 0.000000 0.000000
v 374.015747 125.984253 39.370079
vn 1.000000 0.000000 0.000000
v 374.015747 137.795273 47.244095
vn 1.000000 0.000000 0.000000
v 374.015747 149.606293 55.118111
vn 1.000000 0.000000 0.000000
v 374.015747 161.417328 62.992126
vn 1.000000 0.000000 0.000000
v 374.015747 173.228348 70.866142
vn 1.000000 0.000000 0.000000
v 374.015747 185.039368 78.740158
vn 1.000000 0.000000 0.000000
v 374.015747 196.850403 86.614174
vn 1.000000 0.000000 0.000000
v 374.015747 208.661423 94.488190
vn 1.000000 0.000000 0.000000
v 374.015747 220.472443 102.362206
vn 1.000000 0.000000 0.000000
v 374.015747 232.283463 110.236221
vn 1.000000 0.000000 0.000000
v 374.015747 232.283463 118.110237
vn 1.000000 0.000000 0.000000
v 374.015747 220.472443 110.236221
vn 1.000000 0.000000 0.000000
v 374.015747 208.661423 102.362206
vn 1.000000 0.000000 0.000000
v 374.015747 196.850403 94.488190
vn 1.000000 0.000000 0.000000
v 374.015747 185.039368 86.614174
vn 1.000000 0.000000 0.000000
v 374.015747 173.228348 78.740158
vn 1.000000 0.000000 0.000000
v 374.015747 161.417328 70.866142
vn 1.000000 0.000000 0.000000
v 374.015747 149.606293 62.992126
vn 1.000000 0.000000 0.000000
v 374.015747 137.795273 55.118111
vn 1.000000 0.000000 0.000000
v 374.015747 125.984253 47.244095
vn 1.000000 0.000000 0.000000
v 374.015747 114.173233 39.370079
vn 1.000000 0.000000 0.000000
v 374.015747 102.362206 31.496063
vn 1.000000 0.000000 0.000000
v 374.015747 78.740158 15.748032
vn 0.000000 0.000000 1.000000
v 374.015747 102.362206 23.622047
vn 0.000000 0.000000 1.000000
v 314.960632 90.551178 23.622047
vn 0.000000 0.000000 1.000000
v 374.015747 90.551178 23.622047
vn 0.000000 0.000000 1.000000
v 314.960632 102.362206 23.622047
vn 0.000000 -1.000000 0.000000
v 314.960632 102.362206 31.496063
vn 0.000000 -1.000000 0.000000
v 374.015747 102.362206 23.622047
vn 0.000000 -1.000000 0.000000
v 374.015747 102.362206 31.496063
vn 0.000000 -1.000000 0.000000
v 314.960632 102.362206 23.622047
vn 0.000000 0.000000 1.000000
v 374.015747 114.173233 31.496063
vn 0.000000 0.000000 1.000000
v 314.960632 102.362206 31.496063
vn 0.000000 0.000000 1.000000
v 374.015747 102.362206 31.496063
vn 0.000000 0.000000 1.000000
v 314.960632 114.173233 31.496063
vn 0.000000 -1.000000 0.000000
v 314.960632 114.173233 39.370079
vn 0.000000 -1.000000 0.000000
v 374.015747 114.173233 31.496063
vn 0.000000 -1.000000 0.000000
v 374.015747 114.173233 39.370079
vn 0.000000 -1.000000 0.000000
v 314.960632 114.173233 31.496063
vn 0.000000 0.000000 1.000000
v 374.015747 125.984253 39.370079
vn 0.000000 0.000000 1.000000
v 314.960632 114.173233 39.370079
vn 0.000000 0.000000 1.000000
v 374.015747 114.173233 39.370079
vn 0.000000 0.000000 1.000000
v 314.960632 125.984253 39.370079
vn 0.000000 -1.000000 0.000000
v 314.960632 125.984253 47.244095
vn 0.000000 -1.000000 0.000000
v 374.015747 125.984253 39.370079
vn 0.000000 -1.000000 0.000000
v 374.015747 125.984253 47.244095
vn 0.000000 -1.000000 0.000000
v 314.960632 125.984253 39.370079
vn 0.000000 0.000000 1.000000
v 374.015747 137.795273 47.244095
vn 0.000000 0.000000 1.000000
v 314.960632 125.984253 47.244095
vn 0.000000 0.000000 1.000000
v 374.015747 125.984253 47.244095
vn 0.000000 0.000000 1.000000
v 314.960632 137.795273 47.244095
vn 0.000000 -1.000000 0.000000
v 314.960632 137.795273 55.118111
vn 0.000000 -1.000000 0.000000
v 374.015747 137.795273 47.244095
vn 0.000000 -1.000000 0.000000
v 374.015747 137.795273 55.118111
vn 0.000000 -1.000000 0.000000
v 314.960632 137.795273 47.244095
vn 0.000000 0.000000 1.000000
v 374.015747 149.606293 55.118111
vn 0.000000 0.000000 1.000000
v 314.960632 137.795273 55.118111
vn 0.000000 0.000000 1.000000
v 374.015747 137.795273 55.118111
vn 0.000000 0.000000 1.000000
v 314.960632 149.606293 55.118111
vn 0.000000 -1.000000 0.000000
v 314.960632 149.606293 62.992126
vn 0.000000 -1.000000 0.000000
v 374.015747 149.606293 55.118111
vn 0.000000 -1.000000 0.000000
v 374.015747 149.606293 62.992126
vn 0.000000 -1.000000 0.000000
v 314.960632 149.606293 55.118111
vn 0.000000 0.000000 1.000000
v 374.015747 161.417328 62.992126
vn 0.000000 0.000000 1.000000
v 314.960632 149.606293 62.992126
vn 0.000000 0.000000 1.000000
v 374.015747 149.606293 62.992126
vn 0.000000 0.000000 1.000000
v 314.960632 161.417328 62.992126
vn 0.000000 -1.000000 0.000000
v 314.960632 161.417328 70.866142
vn 0.000000 -1.000000 0.000000
v 374.015747 161.417328 62.992126
vn 0.000000 -1.000000 0.000000
v 374.015747 161.417328 70.866142
vn 0.000000 -1.000000 0.000000
v 314.960632 161.417328 62.992126
vn 0.000000 0.000000 1.000000
v 374.015747 173.228348 70.866142
vn 0.000000 0.000000 1.000000
v 314.960632 161.417328 70.866142
vn 0.000000 0.000000 1.000000
v 374.015747 161.417328 70.866142
vn 0.000000 0.000000 1.000000
v 314.960632 173.228348 70.866142
vn 0.000000 -1.000000 0.000000
v 314.960632 173.228348 78.740158
vn 0.000000 -1.000000 0.000000
v 374.015747 173.228348 70.866142
vn 0.000000 -1.000000 0.000000
v 374.015747 173.228348 78.740158
vn 0.000000 -1.000000 0.000000
v 314.960632 173.228348 70.866142
vn 0.000000 0.000000 1.000000
v 374.015747 185.039368 78.740158
vn 0.000000 0.000000 1.000000
v 314.960632 173.228348 78.740158
vn 0.000000 0.000000 1.000000
v 374.015747 173.228348 78.740158
vn 0.000000 0.000000 1.000000
v 314.960632 185.039368 78.740158
vn 0.000000 -1.000000 0.000000
v 314.960632 185.039368 86.614174
vn 0.000000 -1.000000 0.000000
v 374.015747 185.039368 78.740158
vn 0.000000 -1.000000 0.000000
v 374.015747 185.039368 86.614174
vn 0.000000 -1.000000 0.000000
v 314.960632 185.039368 78.740158
vn 0.000000 0.000000 1.000000
v 374.015747 196.850403 86.614174
vn 0.000000 0.000000 1.000000
v 314.960632 185.039368 86.614174
vn 0.000000 0.000000 1.000000
v 374.015747 185.039368 86.614174
vn 0.000000 0.000000 1.000000
v 314.960632 196.850403 86.614174
vn 0.000000 -1.000000 0.000000
v 314.960632 196.850403 94.488190
vn 0.000000 -1.000000 0.000000
v 374.015747 196.850403 86.614174
vn 0.000000 -1.000000 0.000000
v 374.015747 196.850403 94.488190
vn 0.000000 -1.000000 0.000000
v 314.960632 196.850403 86.614174
vn 0.000000 0.000000 1.000000
v 374.015747 208.661423 94.488190
vn 0.000000 0.000000 1.000000
v 314.960632 196.850403 94.488190
vn 0.000000 0.000000 1.000000
v 374.015747 196.850403 94.488190
vn 0.000000 0.000000 1.000000
v 314.960632 208.661423 94.488190
vn 0.000000 -1.000000 0.000000
v 314.960632 208.661423 102.362206
vn 0.000000 -1.000000 0.000000
v 374.015747 208.661423 94.488190
vn 0.000000 -1.000000 0.000000
v 374.015747 208.661423 102.362206
vn 0.000000 -1.000000 0.000000
v 314.960632 208.661423 94.488190
vn 0.000000 0.000000 1.000000
v 374.015747 220.472443 102.362206
vn 0.000000 0.000000 1.000000
v 314.960632 208.661423 102.362206
vn 0.000000 0.000000 1.000000
v 374.015747 208.661423 102.362206
vn 0.000000 0.000000 1.000000
v 314.960632 220.472443 102.362206
vn 0.000000 -1.000000 0.000000
v 314.960632 220.472443 110.236221
vn 0.000000 -1.000000 0.000000
v 374.015747 220.472443 102.362206
vn 0.000000 -1.000000 0.000000
v 374.015747 220.472443 110.236221
vn 0.000000 -1.000000 0.000000
v 314.960632 220.472443 102.362206
vn 0.000000 0.000000 1.000000
v 374.015747 232.283463 110.236221
vn 0.000000 0.000000 1.000000
v 314.960632 220.472443 110.236221
vn 0.000000 0.000000 1.000000
v 374.015747 220.472443 110.236221
vn 0.000000 0.000000 1.000000
v 314.960632 232.283463 110.236221
vn 0.000000 -1.000000 0.000000
v 314.960632 232.283463 118.110237
vn 0.000000 -1.000000 0.000000
v 374.015747 232.283463 110.236221
vn 0.000000 -1.000000 0.000000
v 374.015747 232.283463 118.110237
vn 0.000000 -1.000000 0.000000
v 314.960632 232.283463 110.236221
vn 0.000000 0.000000 1.000000
v 374.015747 275.590546 118.110237
vn 0.000000 0.000000 1.000000
v 314.960632 232.283463 118.110237
vn 0.000000 0.000000 1.000000
v 374.015747 232.283463 118.110237
vn 0.000000 0.000000 1.000000
v 314.960632 275.590546 118.110237
vn 0.000000 1.000000 0.000000
v 314.960632 275.590546 7.874016
vn 0.000000 1.000000 0.000000
v 374.015747 275.590546 118.110237
vn 0.000000 1.000000 0.000000
v 374.015747 275.590546 7.874016
vn 0.000000 1.000000 0.000000
v 314.960632 275.590546 118.110237
vn 0.000000 0.000000 -1.000000
v 314.960632 275.590546 7.874016
vn 0.000000 0.000000 -1.000000
v 374.015747 78.740158 7.874016
vn 0.000000 0.000000 -1.000000
v 314.960632 78.740158 7.874016
vn 0.000000 0.000000 -1.000000
v 374.015747 275.590546 7.874016
vn 0.000000 -1.000000 0.000000
v 314.960632 78.740158 15.748032
vn 0.000000 -1.000000 0.000000
v 374.015747 78.740158 7.874016
vn 0.000000 -1.000000 0.000000
v 374.015747 78.740158 15.748032
vn 0.000000 -1.000000 0.000000
v 314.960632 78.740158 7.874016
# 180 vertices, 0 vertices normals

f 1//1 2//2 3//3
f 2//2 1//1 4//4
f 5//5 6//6 7//7
f 6//6 5//5 8//8
f 6//6 8//8 9//9
f 9//9 8//8 10//10
f 10//10 8//8 11//11
f 9//9 10//10 12//12
f 12//12 10//10 13//13
f 9//9 12//12 14//14
f 14//14 12//12 15//15
f 9//9 14//14 16//16
f 16//16 14//14 17//17
f 9//9 16//16 18//18
f 18//18 16//16 19//19
f 9//9 18//18 20//20
f 20//20 18//18 21//21
f 9//9 20//20 22//22
f 22//22 20//20 23//23
f 9//9 22//22 24//24
f 24//24 22//22 25//25
f 9//9 24//24 26//26
f 26//26 24//24 27//27
f 9//9 26//26 28//28
f 28//28 26//26 29//29
f 9//9 28//28 30//30
f 30//30 28//28 31//31
f 9//9 30//30 32//32
f 32//32 30//30 33//33
f 9//9 32//32 34//34
f 35//35 36//36 37//37
f 36//36 35//35 38//38
f 39//39 40//40 41//41
f 42//42 43//43 44//44
f 43//43 42//42 40//40
f 40//40 42//42 41//41
f 41//41 42//42 45//45
f 45//45 42//42 46//46
f 46//46 42//42 47//47
f 47//47 42//42 48//48
f 48//48 42//42 49//49
f 49//49 42//42 50//50
f 50//50 42//42 51//51
f 51//51 42//42 52//52
f 52//52 42//42 53//53
f 53//53 42//42 54//54
f 54//54 42//42 55//55
f 55//55 42//42 56//56
f 57//57 54//54 55//55
f 58//58 53//53 54//54
f 59//59 52//52 53//53
f 60//60 51//51 52//52
f 61//61 50//50 51//51
f 62//62 49//49 50//50
f 63//63 48//48 49//49
f 64//64 47//47 48//48
f 65//65 46//46 47//47
f 66//66 45//45 46//46
f 67//67 41//41 45//45
f 68//68 43//43 40//40
f 69//69 70//70 71//71
f 70//70 69//69 72//72
f 73//73 74//74 75//75
f 74//74 73//73 76//76
f 77//77 78//78 79//79
f 78//78 77//77 80//80
f 81//81 82//82 83//83
f 82//82 81//81 84//84
f 85//85 86//86 87//87
f 86//86 85//85 88//88
f 89//89 90//90 91//91
f 90//90 89//89 92//92
f 93//93 94//94 95//95
f 94//94 93//93 96//96
f 97//97 98//98 99//99
f 98//98 97//97 100//100
f 101//101 102//102 103//103
f 102//102 101//101 104//104
f 105//105 106//106 107//107
f 106//106 105//105 108//108
f 109//109 110//110 111//111
f 110//110 109//109 112//112
f 113//113 114//114 115//115
f 114//114 113//113 116//116
f 117//117 118//118 119//119
f 118//118 117//117 120//120
f 121//121 122//122 123//123
f 122//122 121//121 124//124
f 125//125 126//126 127//127
f 126//126 125//125 128//128
f 129//129 130//130 131//131
f 130//130 129//129 132//132
f 133//133 134//134 135//135
f 134//134 133//133 136//136
f 137//137 138//138 139//139
f 138//138 137//137 140//140
f 141//141 142//142 143//143
f 142//142 141//141 144//144
f 145//145 146//146 147//147
f 146//146 145//145 148//148
f 149//149 150//150 151//151
f 150//150 149//149 152//152
f 153//153 154//154 155//155
f 154//154 153//153 156//156
f 157//157 158//158 159//159
f 158//158 157//157 160//160
f 161//161 162//162 163//163
f 162//162 161//161 164//164
f 165//165 166//166 167//167
f 166//166 165//165 168//168
f 169//169 170//170 171//171
f 170//170 169//169 172//172
f 173//173 174//174 175//175
f 174//174 173//173 176//176
f 177//177 178//178 179//179
f 178//178 177//177 180//180
# 116 faces, 0 coords texture

# End of File