####
#
# OBJ File Generated by Meshlab
#
####
# Object visualTop.obj
#
# Vertices: 34
# Faces: 30
#
####
vn 0.000000 0.000000 1.000000
v 377.952759 0.000000 220.472443
vn 0.000000 0.000000 1.000000
v 374.015747 275.590546 220.472443
vn 0.000000 0.000000 1.000000
v 374.015747 0.000000 220.472443
vn 0.000000 0.000000 1.000000
v 377.952759 133.858261 220.472443
vn 0.000000 0.000000 1.000000
v 377.952759 271.653534 220.472443
vn 0.000000 0.000000 1.000000
v 433.070862 275.590546 220.472443
vn 0.000000 0.000000 1.000000
v 377.952759 137.795273 220.472443
vn 0.000000 0.000000 1.000000
v 511.811035 271.653534 220.472443
vn 0.000000 0.000000 1.000000
v 437.007874 275.590546 220.472443
vn 0.000000 0.000000 1.000000
v 433.070862 354.330719 220.472443
vn 0.000000 0.000000 1.000000
v 511.811035 275.590546 220.472443
vn 0.000000 0.000000 1.000000
v 437.007874 354.330719 220.472443
vn 0.000000 0.000000 1.000000
v 511.811035 133.858261 220.472443
vn 0.000000 0.000000 1.000000
v 511.811035 137.795273 220.472443
vn 0.000000 0.000000 1.000000
v 255.905518 0.000000 220.472443
vn 0.000000 0.000000 1.000000
v 251.968506 196.850388 220.472443
vn 0.000000 0.000000 1.000000
v 251.968506 0.000000 220.472443
vn 0.000000 0.000000 1.000000
v 255.905518 200.787399 220.472443
vn 0.000000 0.000000 1.000000
v 153.543304 196.850388 220.472443
vn 0.000000 0.000000 1.000000
v 0.000000 200.787399 220.472443
vn 0.000000 0.000000 1.000000
v 0.000000 196.850388 220.472443
vn 0.000000 0.000000 1.000000
v 94.488190 200.787399 220.472443
vn 0.000000 0.000000 1.000000
v 98.425194 200.787399 220.472443
vn 0.000000 0.000000 1.000000
v 94.488190 354.330719 220.472443
vn 0.000000 0.000000 1.000000
v 98.425194 354.330719 220.472443
vn 0.000000 0.000000 1.000000
v 157.480316 196.850388 220.472443
vn 0.000000 0.000000 1.000000
v 153.543304 0.000000 220.472443
vn 0.000000 0.000000 1.000000
v 157.480316 0.000000 220.472443
vn 0.000000 0.000000 1.000000
v 98.425194 279.527557 220.472443
vn 0.000000 0.000000 1.000000
v 98.425194 275.590546 220.472443
vn 0.000000 0.000000 1.000000
v 255.905518 275.590546 220.472443
vn 0.000000 0.000000 1.000000
v 251.968506 279.527557 220.472443
vn 0.000000 0.000000 1.000000
v 255.905518 354.330719 220.472443
vn 0.000000 0.000000 1.000000
v 251.968506 354.330719 220.472443
# 34 vertices, 0 vertices normals

f 1//1 2//2 3//3
f 2//2 1//1 4//4
f 2//2 5//5 6//6
f 5//5 2//2 7//7
f 7//7 2//2 4//4
f 6//6 5//5 8//8
f 6//6 8//8 9//9
f 6//6 9//9 10//10
f 9//9 8//8 11//11
f 12//12 10//10 9//9
f 13//13 7//7 4//4
f 7//7 13//13 14//14
f 15//15 16//16 17//17
f 16//16 15//15 18//18
f 19//19 20//20 21//21
f 20//20 19//19 22//22
f 22//22 19//19 23//23
f 22//22 23//23 24//24
f 24//24 23//23 25//25
f 23//23 19//19 18//18
f 18//18 19//19 26//26
f 26//26 19//19 27//27
f 26//26 27//27 28//28
f 18//18 26//26 16//16
f 23//23 29//29 25//25
f 29//29 23//23 30//30
f 29//29 30//30 31//31
f 29//29 31//31 32//32
f 32//32 31//31 33//33
f 33//33 34//34 32//32
# 30 faces, 0 coords texture

# End of File