####
#
# OBJ File Generated by Meshlab
#
####
# Object visualBottom.obj
#
# Vertices: 48
# Faces: 36
#
####
vn -0.000000 -1.000000 0.000000
v 511.811035 0.000000 7.874016
vn -0.000000 -1.000000 0.000000
v 0.000000 0.000000 0.000000
vn -0.000000 -1.000000 0.000000
v 511.811035 0.000000 0.000000
vn 0.000000 -1.000000 -0.000000
v 0.000000 0.000000 7.874016
vn 0.000000 0.000000 -1.000000
v 122.047241 0.000000 7.874016
vn 0.000000 0.000000 -1.000000
v 118.110237 0.000000 7.874016
vn 0.000000 0.000000 1.000000
v 118.110237 0.000000 7.874016
vn 0.000000 0.000000 1.000000
v 0.000000 196.850388 7.874016
vn 0.000000 0.000000 1.000000
v 0.000000 0.000000 7.874016
vn 0.000000 0.000000 1.000000
v 0.000000 200.787399 7.874016
vn 0.000000 0.000000 1.000000
v 177.165359 354.330719 7.874016
vn 0.000000 0.000000 1.000000
v 0.000000 354.330719 7.874016
vn 0.000000 0.000000 1.000000
v 122.047241 0.000000 7.874016
vn 0.000000 0.000000 1.000000
v 511.811035 0.000000 7.874016
vn 0.000000 0.000000 1.000000
v 181.102356 354.330719 7.874016
vn 0.000000 0.000000 1.000000
v 374.015747 354.330719 7.874016
vn 0.000000 0.000000 1.000000
v 377.952759 354.330719 7.874016
vn 0.000000 0.000000 1.000000
v 511.811035 354.330719 7.874016
vn 0.000000 0.000000 0.000000
v 511.811035 141.732285 7.874016
vn 0.000000 0.000000 0.000000
v 511.811035 137.795273 7.874016
vn 0.000000 0.000000 0.000000
v 511.811035 216.535431 7.874016
vn 0.000000 0.000000 0.000000
v 511.811035 220.472443 7.874016
vn -1.000000 0.000000 0.000000
v 0.000000 196.850388 7.874016
vn -1.000000 0.000000 0.000000
v 0.000000 0.000000 0.000000
vn -1.000000 0.000000 0.000000
v 0.000000 0.000000 7.874016
vn -1.000000 0.000000 0.000000
v 0.000000 354.330719 0.000000
vn -1.000000 0.000000 0.000000
v 0.000000 200.787399 7.874016
vn -1.000000 -0.000000 0.000000
v 0.000000 354.330719 7.874016
vn 0.000000 0.000000 -1.000000
v 511.811035 354.330719 0.000000
vn 0.000000 0.000000 -1.000000
v 0.000000 0.000000 0.000000
vn 0.000000 0.000000 -1.000000
v 0.000000 354.330719 0.000000
vn 0.000000 0.000000 -1.000000
v 511.811035 0.000000 0.000000
vn 1.000000 0.000000 0.000000
v 511.811035 354.330719 0.000000
vn 1.000000 0.000000 0.000000
v 511.811035 0.000000 7.874016
vn 1.000000 0.000000 0.000000
v 511.811035 0.000000 0.000000
vn 1.000000 0.000000 0.000000
v 511.811035 137.795273 7.874016
vn 1.000000 0.000000 0.000000
v 511.811035 141.732285 7.874016
vn 1.000000 0.000000 0.000000
v 511.811035 216.535431 7.874016
vn 1.000000 0.000000 0.000000
v 511.811035 220.472443 7.874016
vn 1.000000 0.000000 0.000000
v 511.811035 354.330719 7.874016
vn 0.000000 1.000000 0.000000
v 0.000000 354.330719 7.874016
vn 0.000000 1.000000 0.000000
v 511.811035 354.330719 0.000000
vn 0.000000 1.000000 0.000000
v 0.000000 354.330719 0.000000
vn 0.000000 1.000000 0.000000
v 511.811035 354.330719 7.874016
vn 0.000000 0.000000 0.000000
v 177.165359 354.330719 7.874016
vn 0.000000 0.000000 0.000000
v 377.952759 354.330719 7.874016
vn 0.000000 0.000000 0.000000
v 181.102356 354.330719 7.874016
vn 0.000000 0.000000 0.000000
v 374.015747 354.330719 7.874016
# 48 vertices, 0 vertices normals

f 1//1 2//2 3//3
f 2//2 1//1 4//4
f 4//4 1//1 5//5
f 4//4 5//5 6//6
f 7//7 8//8 9//9
f 8//8 7//7 10//10
f 10//10 11//11 12//12
f 11//11 10//10 7//7
f 11//11 7//7 13//13
f 11//11 13//13 14//14
f 11//11 14//14 15//15
f 15//15 14//14 16//16
f 16//16 14//14 17//17
f 17//17 14//14 18//18
f 18//18 14//14 19//19
f 19//19 14//14 20//20
f 18//18 21//21 22//22
f 21//21 18//18 19//19
f 23//23 24//24 25//25
f 24//24 23//23 26//26
f 26//26 23//23 27//27
f 26//26 27//27 28//28
f 29//29 30//30 31//31
f 30//30 29//29 32//32
f 33//33 34//34 35//35
f 34//34 33//33 36//36
f 36//36 33//33 37//37
f 37//37 33//33 38//38
f 38//38 33//33 39//39
f 39//39 33//33 40//40
f 41//41 42//42 43//43
f 42//42 41//41 44//44
f 44//44 41//41 45//45
f 44//44 45//45 46//46
f 46//46 45//45 47//47
f 46//46 47//47 48//48
# 36 faces, 0 coords texture

# End of File